<svg xmlns="http://www.w3.org/2000/svg" viewBox="0 0 305 305.08"><defs><style>.a,.b{fill:none;stroke-linecap:round;stroke-linejoin:round;stroke-width:5px;}.a{stroke:#000;}.b{stroke:#9caf88;}</style></defs><ellipse class="a" cx="152.5" cy="152.54" rx="149.96" ry="150"/><path class="a" d="M130.38,173.19c6.08-17.57-11.25-45.72-7.82-60.26,3.54-15,36-69.28,40.26-73.88,8.67,10.44,23.3,34.09,12.12,49.27"/><path class="b" d="M63.56,194.64c-3.05-1.69-27.93-19.25-14.13-60.9,1.12-3.36,2.33-7.59,5.69-11.71-.23-4.07,2.23-13.63,14-14.49.64,10.28-8.89,14-14,14.49"/><path class="b" d="M31.2,131.26c6.57-.37,12.22,5.12,14.63,17.92C37.06,146.87,31.13,141.12,31.2,131.26Z"/><path class="b" d="M66.65,128.22c-1.5,7.26-8.84,11.09-18.07,8.22C53,129.7,56.43,127,66.65,128.22Z"/><path class="b" d="M40.56,111.93c10.41,4.87,8.66,15.94,9,21.26C44.42,130.09,35.9,123.29,40.56,111.93Z"/><path class="b" d="M61.4,144c.46,8.24-9.85,12.73-16.1,13.56C47.6,145.22,56.15,144.27,61.4,144Z"/><path class="b" d="M61.79,158.44c2,5.22-3.6,15.57-13.14,17.3C48.12,163.34,56.84,159.32,61.79,158.44Z"/><path class="b" d="M28,153.24c8-1.39,15.46,3.58,17.9,12C39.68,166.69,31.29,163,28,153.24Z"/><path class="b" d="M31.2,176.62c9.41-5.17,16.38,1.41,20.48,5.31C43.56,185.5,34.15,183.57,31.2,176.62Z"/><path class="a" d="M63.75,197.33c-.68-2.33.39-7.28,1.13-9.44-1.38-15.45,6.45-22.9,15.79-25.14,20.19-4.84,35.38,14.51,50.85,10.16,19.69-5.53,9.1-44.74,24.59-64.79,8.5-11,23.07-23,31.34-32.52,13-14.87,19.93-25.29,30.53-34.82,18.83,67.33-3.71,122.44-27.41,142.41,16.48,13.86,41,10.77,69.52,3.78,7.64,30.53-7.35,61-30,62.07-13.72-19.91-21.16-25.25-35.08-27.78-19.51-3.55-35.9,9.45-61.83,7.17-13.08-1.16-22.07-9.39-29.09-16.4-8.61-8.58-17.21-17.75-25.57-18.1C72.47,193.68,65.65,195.31,63.75,197.33Z"/></svg>